<?xml version="1.0" encoding="utf-8"?>
<!-- Generator: Adobe Illustrator 19.2.1, SVG Export Plug-In . SVG Version: 6.00 Build 0)  -->
<svg version="1.1" id="Capa_1" focusable="false" xmlns="http://www.w3.org/2000/svg" xmlns:xlink="http://www.w3.org/1999/xlink"
	 x="0px" y="0px" viewBox="0 0 50 50" style="enable-background:new 0 0 50 50;" xml:space="preserve">
<style type="text/css">
	.st0{fill:#FFFFFF;}
</style>
<path class="st0" d="M49.2,32.6L35,25l14.2-7.6c0.8-0.4,1.1-1.4,0.6-2.1l-3.3-5.4c-0.5-0.7-1.5-1-2.3-0.6L30,16.9V1.7
	c0-0.9-0.7-1.6-1.7-1.6h-6.7c-0.9,0-1.7,0.7-1.7,1.6v15.2L5.8,9.3C5,8.9,4,9.1,3.6,9.9l-3.3,5.4C-0.2,16,0,17,0.8,17.4L15,25
	L0.8,32.6C0,33-0.2,34,0.2,34.7l3.3,5.4c0.5,0.7,1.5,1,2.3,0.6L20,33.1v15.2c0,0.9,0.7,1.6,1.7,1.6h6.7c0.9,0,1.7-0.7,1.7-1.6V33.1
	l14.2,7.6c0.8,0.4,1.8,0.2,2.3-0.6l3.3-5.4C50.2,34,50,33,49.2,32.6L49.2,32.6z"/>
</svg>
