<?xml version="1.0" encoding="utf-8"?>
<!-- Generator: Adobe Illustrator 19.2.1, SVG Export Plug-In . SVG Version: 6.00 Build 0)  -->
<svg version="1.1" id="Capa_1" xmlns="http://www.w3.org/2000/svg" xmlns:xlink="http://www.w3.org/1999/xlink" x="0px" y="0px"
	 viewBox="0 0 60 60" style="enable-background:new 0 0 60 60;" xml:space="preserve">
<style type="text/css">
	.st0{fill:#FFFFFF;}
</style>
<g>
	<path class="st0" d="M59.7,34.3v-8.7l-4.5-0.9c-1.1-0.2-2-1-2.3-2c-0.4-1.3-1-2.6-1.6-3.9c-0.5-1-0.4-2.2,0.2-3.1l2.6-3.8l-6.1-6.1
		l-3.8,2.6c-0.9,0.6-2.1,0.7-3.1,0.2c-1.2-0.6-2.5-1.2-3.9-1.6c-1.1-0.3-1.8-1.2-2-2.3l-0.9-4.5h-8.7l-0.9,4.5c-0.2,1.1-1,2-2,2.3
		c-1.3,0.4-2.6,1-3.9,1.6c-1,0.5-2.2,0.4-3.1-0.2l-3.8-2.6l-6.1,6.1l2.6,3.8c0.6,0.9,0.7,2.1,0.2,3.1c-0.6,1.2-1.2,2.5-1.6,3.9
		c-0.3,1-1.2,1.8-2.3,2l-4.5,0.9v8.7l4.5,0.8c1.1,0.2,2,1,2.3,2c0.4,1.3,1,2.6,1.6,3.9c0.5,1,0.4,2.2-0.2,3.1l-2.6,3.8l6.1,6.1
		l3.8-2.6c0.9-0.6,2.1-0.7,3.1-0.2c1.2,0.6,2.5,1.2,3.9,1.6c1,0.3,1.8,1.2,2,2.3l0.9,4.5h8.7l0.9-4.5c0.2-1.1,1-2,2-2.3
		c1.3-0.4,2.6-1,3.9-1.6c1-0.5,2.2-0.4,3.1,0.2l3.8,2.6l6.1-6.1l-2.6-3.8c-0.6-0.9-0.7-2.1-0.2-3.1c0.6-1.2,1.2-2.5,1.6-3.9
		c0.3-1,1.2-1.8,2.3-2L59.7,34.3z M30,47.5c-9.7,0-17.5-7.8-17.5-17.5c0-9.7,7.8-17.5,17.5-17.5c9.7,0,17.5,7.9,17.5,17.5
		C47.5,39.7,39.7,47.5,30,47.5z"/>
	<path class="st0" d="M30,21c-5,0-9,4-9,9c0,5,4,9,9,9c5,0,9-4,9-9C39,25,35,21,30,21z"/>
</g>
</svg>
