<?xml version="1.0" encoding="utf-8"?>
<!-- Generator: Adobe Illustrator 19.2.1, SVG Export Plug-In . SVG Version: 6.00 Build 0)  -->
<svg version="1.1" id="Capa_1" xmlns="http://www.w3.org/2000/svg" xmlns:xlink="http://www.w3.org/1999/xlink" x="0px" y="0px"
	 viewBox="0 0 500 389" style="enable-background:new 0 0 500 389;" xml:space="preserve">
<style type="text/css">
	.st0{fill:#AE8068;}
	.st1{opacity:0.4;}
	.st2{fill:#E4D0B1;}
	.st3{opacity:0.6;}
	.st4{clip-path:url(#SVGID_2_);fill:#AE8068;}
	.st5{fill:#64A50B;}
	.st6{fill:#58890A;}
	.st7{fill:#282D54;}
	.st8{fill:#1E223D;}
	.st9{fill:#323652;}
	.st10{fill:#454B73;}
	.st11{fill:#22253D;}
</style>
<g>
	<path class="st0" d="M145.9,328.9l51.5,59.2h243.2l51.4-59.2c3.5-4,5.9-8.7,7.1-13.7c1.7-6.8,1.1-14.2-1.8-20.9l-52.9-120.5
		l-8.5-19.5H202l-0.4,0.9l-6.2,14.1l-54.8,125C135.5,305.9,137.6,319.3,145.9,328.9"/>
	<g class="st1">
		<g>
			<path class="st0" d="M356.5,310.9l142.6,4.3c-1.2,5-3.6,9.7-7.1,13.7l-51.4,59.2h-144L356.5,310.9z"/>
		</g>
	</g>
	<path class="st2" d="M8,328.9l51.5,59.2h243.2l51.4-59.2c8.3-9.5,10.3-23,5.3-34.5l-54-123l-7.4-16.9H64.2l-1,2.3l-4.6,10.6
		l-37,84.3l4,2l-2,5.9l-5.3-0.3l-15.5,35C-2.3,305.9-0.3,319.3,8,328.9"/>
	<g class="st3">
		<g>
			<g>
				<defs>
					<rect id="SVGID_1_" x="58.6" y="154.4" width="385.8" height="19.5"/>
				</defs>
				<clipPath id="SVGID_2_">
					<use xlink:href="#SVGID_1_"  style="overflow:visible;"/>
				</clipPath>
				<path class="st4" d="M58.6,167.2c17.5,0.1,72.7,1,136.9,2.2c35.5,0.6,73.8,1.3,109.9,1.9c59.6,1.1,113.3,2,139,2.5l-8.5-19.5
					H289.2l-87.6,0.9l-138.5,1.4L58.6,167.2z"/>
			</g>
		</g>
	</g>
	<polygon class="st5" points="25.6,253.6 23.5,259.5 227.5,271.7 296,388.1 296,388.2 302.7,388.1 232.6,265.8 21.5,251.6 	"/>
	<polygon class="st6" points="25.6,253.6 232.2,267.3 302.7,388.1 232.6,265.8 21.5,251.6 	"/>
	<rect x="51.5" y="148.5" class="st7" width="392.7" height="11.9"/>
	<rect x="308.1" y="148.5" class="st8" width="136.1" height="11.9"/>
	<rect x="145.1" y="146.7" class="st9" width="75.7" height="2.8"/>
	<polygon class="st10" points="55.8,7.3 206.1,7.3 221,110.6 216.8,114.8 70.6,110.6 51.6,11.5 	"/>
	<polygon class="st7" points="51.6,11.5 201.9,11.5 216.8,114.8 66.4,114.8 	"/>
	<polygon class="st11" points="126.9,85.7 142.8,85.7 152,149.6 136.1,149.6 	"/>
	<polygon class="st9" points="124,85.7 139.8,85.7 149,149.6 133.2,149.6 	"/>
</g>
</svg>
