<?xml version="1.0" encoding="utf-8"?>
<!-- Generator: Adobe Illustrator 19.2.1, SVG Export Plug-In . SVG Version: 6.00 Build 0)  -->
<svg version="1.1" id="Capa_1" xmlns="http://www.w3.org/2000/svg" xmlns:xlink="http://www.w3.org/1999/xlink" x="0px" y="0px"
	 viewBox="0 0 35 35" style="enable-background:new 0 0 35 35;" xml:space="preserve">
<style type="text/css">
	.st0{fill:url(#SVGID_1_);}
	.st1{fill:url(#SVGID_2_);}
	.st2{fill:url(#SVGID_3_);}
	.st3{opacity:0.2;}
	.st4{fill:#929396;}
	.st5{fill:url(#SVGID_4_);}
	.st6{fill:url(#SVGID_5_);}
	.st7{fill:url(#SVGID_6_);}
	.st8{fill:none;stroke:#D0D1D2;stroke-width:0.5;}
</style>
<g>
	<g>
		<linearGradient id="SVGID_1_" gradientUnits="userSpaceOnUse" x1="1.5553" y1="18.859" x2="20.6889" y2="18.859">
			<stop  offset="0" style="stop-color:#FDF2F7"/>
			<stop  offset="0.1124" style="stop-color:#FBF2F8"/>
			<stop  offset="0.2392" style="stop-color:#FDF7F8"/>
			<stop  offset="0.3539" style="stop-color:#FFFEF7"/>
			<stop  offset="0.4922" style="stop-color:#FDFCF7"/>
			<stop  offset="0.6226" style="stop-color:#F3F6F8"/>
			<stop  offset="0.7135" style="stop-color:#E8EFF8"/>
			<stop  offset="1" style="stop-color:#FDF0EA"/>
		</linearGradient>
		<path class="st0" d="M20.1,4.1C19.7,3.9,19.3,4,19,4.2L8.6,12.5H3.7c-1.2,0-2.1,1-2.1,2.1v8.5c0,1.2,1,2.1,2.1,2.1h4.9L19,33.5
			c0.2,0.2,0.4,0.2,0.7,0.2c0.2,0,0.3,0,0.5-0.1c0.4-0.2,0.6-0.5,0.6-1V5C20.7,4.6,20.5,4.3,20.1,4.1z"/>
		<linearGradient id="SVGID_2_" gradientUnits="userSpaceOnUse" x1="24.26" y1="18.8587" x2="29.1928" y2="18.8587">
			<stop  offset="0" style="stop-color:#FDF2F7"/>
			<stop  offset="0.1124" style="stop-color:#FBF2F8"/>
			<stop  offset="0.2392" style="stop-color:#FDF7F8"/>
			<stop  offset="0.3539" style="stop-color:#FFFEF7"/>
			<stop  offset="0.4922" style="stop-color:#FDFCF7"/>
			<stop  offset="0.6226" style="stop-color:#F3F6F8"/>
			<stop  offset="0.7135" style="stop-color:#E8EFF8"/>
			<stop  offset="1" style="stop-color:#FDF0EA"/>
		</linearGradient>
		<path class="st1" d="M26.1,11.3c-0.4-0.4-1.1-0.4-1.5,0c-0.4,0.4-0.4,1.1,0,1.5c1.6,1.6,2.5,3.7,2.5,6s-0.9,4.4-2.5,6
			c-0.4,0.4-0.4,1.1,0,1.5c0.2,0.2,0.5,0.3,0.8,0.3c0.3,0,0.5-0.1,0.7-0.3c2-2,3.1-4.7,3.1-7.5S28.1,13.3,26.1,11.3z"/>
		<linearGradient id="SVGID_3_" gradientUnits="userSpaceOnUse" x1="27.2573" y1="18.8584" x2="33.4447" y2="18.8584">
			<stop  offset="0" style="stop-color:#FDF2F7"/>
			<stop  offset="0.1124" style="stop-color:#FBF2F8"/>
			<stop  offset="0.2392" style="stop-color:#FDF7F8"/>
			<stop  offset="0.3539" style="stop-color:#FFFEF7"/>
			<stop  offset="0.4922" style="stop-color:#FDFCF7"/>
			<stop  offset="0.6226" style="stop-color:#F3F6F8"/>
			<stop  offset="0.7135" style="stop-color:#E8EFF8"/>
			<stop  offset="1" style="stop-color:#FDF0EA"/>
		</linearGradient>
		<path class="st2" d="M29.1,8.3c-0.4-0.4-1.1-0.4-1.5,0c-0.4,0.4-0.4,1.1,0,1.5c2.4,2.4,3.7,5.6,3.7,9s-1.3,6.6-3.7,9
			c-0.4,0.4-0.4,1.1,0,1.5c0.2,0.2,0.5,0.3,0.8,0.3c0.3,0,0.5-0.1,0.8-0.3c2.8-2.8,4.4-6.5,4.4-10.5S31.9,11.1,29.1,8.3z"/>
	</g>
	<g class="st3">
		<path class="st4" d="M19.6,32.7c-0.5,0-0.9-0.2-1.3-0.4L8.3,24.2H3.7c-1.7,0-3.1-1.4-3.1-3.1v-8.5c0-1.7,1.4-3.1,3.1-3.1h4.6
			l10.1-8.1C18.7,1.1,19.2,1,19.6,1c0.3,0,0.6,0.1,0.9,0.2c0.7,0.3,1.2,1.1,1.2,1.9v27.6c0,0.8-0.5,1.5-1.2,1.9
			C20.2,32.7,19.9,32.7,19.6,32.7z"/>
		<path class="st4" d="M25.3,25.7c-0.6,0-1.1-0.2-1.5-0.6c-0.8-0.8-0.8-2.1,0-2.9c1.4-1.4,2.2-3.3,2.2-5.3c0-2-0.8-3.9-2.2-5.3
			c-0.8-0.8-0.8-2.1,0-2.9C24.2,8.3,24.8,8,25.3,8c0.5,0,1.1,0.2,1.4,0.6c2.2,2.2,3.4,5.1,3.4,8.2c0,3.1-1.2,6.1-3.4,8.2
			C26.4,25.5,25.9,25.7,25.3,25.7z"/>
		<path class="st4" d="M28.3,28.7c-0.6,0-1.1-0.2-1.5-0.6c-0.8-0.8-0.8-2.1,0-2.9c2.2-2.2,3.5-5.2,3.5-8.3c0-3.1-1.2-6.1-3.5-8.3
			c-0.8-0.8-0.8-2.1,0-2.9C27.2,5.3,27.8,5,28.3,5c0.5,0,1.1,0.2,1.5,0.6c3,3,4.7,7,4.7,11.2c0,4.3-1.7,8.2-4.7,11.2
			C29.4,28.5,28.9,28.7,28.3,28.7z"/>
	</g>
	<g>
		
			<linearGradient id="SVGID_4_" gradientUnits="userSpaceOnUse" x1="1.5553" y1="17.5" x2="33.4447" y2="17.5" gradientTransform="matrix(1 0 0 1 0 1.359)">
			<stop  offset="0" style="stop-color:#FDF2F7"/>
			<stop  offset="0.1124" style="stop-color:#FBF2F8"/>
			<stop  offset="0.2392" style="stop-color:#FDF7F8"/>
			<stop  offset="0.3539" style="stop-color:#FFFEF7"/>
			<stop  offset="0.4922" style="stop-color:#FDFCF7"/>
			<stop  offset="0.6226" style="stop-color:#F3F6F8"/>
			<stop  offset="0.7135" style="stop-color:#E8EFF8"/>
			<stop  offset="1" style="stop-color:#FDF0EA"/>
		</linearGradient>
		<path class="st5" d="M20.1,4.1C19.7,3.9,19.3,4,19,4.2L8.6,12.5H3.7c-1.2,0-2.1,1-2.1,2.1v8.5c0,1.2,1,2.1,2.1,2.1h4.9L19,33.5
			c0.2,0.2,0.4,0.2,0.7,0.2c0.2,0,0.3,0,0.5-0.1c0.4-0.2,0.6-0.5,0.6-1V5C20.7,4.6,20.5,4.3,20.1,4.1z"/>
		
			<linearGradient id="SVGID_5_" gradientUnits="userSpaceOnUse" x1="1.5553" y1="17.5" x2="33.4447" y2="17.5" gradientTransform="matrix(1 0 0 1 0 1.359)">
			<stop  offset="0" style="stop-color:#FDF2F7"/>
			<stop  offset="0.1124" style="stop-color:#FBF2F8"/>
			<stop  offset="0.2392" style="stop-color:#FDF7F8"/>
			<stop  offset="0.3539" style="stop-color:#FFFEF7"/>
			<stop  offset="0.4922" style="stop-color:#FDFCF7"/>
			<stop  offset="0.6226" style="stop-color:#F3F6F8"/>
			<stop  offset="0.7135" style="stop-color:#E8EFF8"/>
			<stop  offset="1" style="stop-color:#FDF0EA"/>
		</linearGradient>
		<path class="st6" d="M26.1,11.3c-0.4-0.4-1.1-0.4-1.5,0c-0.4,0.4-0.4,1.1,0,1.5c1.6,1.6,2.5,3.7,2.5,6s-0.9,4.4-2.5,6
			c-0.4,0.4-0.4,1.1,0,1.5c0.2,0.2,0.5,0.3,0.8,0.3c0.3,0,0.5-0.1,0.7-0.3c2-2,3.1-4.7,3.1-7.5S28.1,13.3,26.1,11.3z"/>
		
			<linearGradient id="SVGID_6_" gradientUnits="userSpaceOnUse" x1="1.5553" y1="17.5" x2="33.4447" y2="17.5" gradientTransform="matrix(1 0 0 1 0 1.359)">
			<stop  offset="0" style="stop-color:#FDF2F7"/>
			<stop  offset="0.1124" style="stop-color:#FBF2F8"/>
			<stop  offset="0.2392" style="stop-color:#FDF7F8"/>
			<stop  offset="0.3539" style="stop-color:#FFFEF7"/>
			<stop  offset="0.4922" style="stop-color:#FDFCF7"/>
			<stop  offset="0.6226" style="stop-color:#F3F6F8"/>
			<stop  offset="0.7135" style="stop-color:#E8EFF8"/>
			<stop  offset="1" style="stop-color:#FDF0EA"/>
		</linearGradient>
		<path class="st7" d="M29.1,8.3c-0.4-0.4-1.1-0.4-1.5,0c-0.4,0.4-0.4,1.1,0,1.5c2.4,2.4,3.7,5.6,3.7,9s-1.3,6.6-3.7,9
			c-0.4,0.4-0.4,1.1,0,1.5c0.2,0.2,0.5,0.3,0.8,0.3c0.3,0,0.5-0.1,0.8-0.3c2.8-2.8,4.4-6.5,4.4-10.5S31.9,11.1,29.1,8.3z"/>
	</g>
	<g>
		<path class="st8" d="M20.1,4.1C19.7,3.9,19.3,4,19,4.2L8.6,12.5H3.7c-1.2,0-2.1,1-2.1,2.1v8.5c0,1.2,1,2.1,2.1,2.1h4.9L19,33.5
			c0.2,0.2,0.4,0.2,0.7,0.2c0.2,0,0.3,0,0.5-0.1c0.4-0.2,0.6-0.5,0.6-1V5C20.7,4.6,20.5,4.3,20.1,4.1z"/>
		<path class="st8" d="M26.1,11.3c-0.4-0.4-1.1-0.4-1.5,0c-0.4,0.4-0.4,1.1,0,1.5c1.6,1.6,2.5,3.7,2.5,6s-0.9,4.4-2.5,6
			c-0.4,0.4-0.4,1.1,0,1.5c0.2,0.2,0.5,0.3,0.8,0.3c0.3,0,0.5-0.1,0.7-0.3c2-2,3.1-4.7,3.1-7.5S28.1,13.3,26.1,11.3z"/>
		<path class="st8" d="M29.1,8.3c-0.4-0.4-1.1-0.4-1.5,0c-0.4,0.4-0.4,1.1,0,1.5c2.4,2.4,3.7,5.6,3.7,9s-1.3,6.6-3.7,9
			c-0.4,0.4-0.4,1.1,0,1.5c0.2,0.2,0.5,0.3,0.8,0.3c0.3,0,0.5-0.1,0.8-0.3c2.8-2.8,4.4-6.5,4.4-10.5S31.9,11.1,29.1,8.3z"/>
	</g>
</g>
</svg>
