<?xml version="1.0" encoding="utf-8"?>
<!-- Generator: Adobe Illustrator 19.2.1, SVG Export Plug-In . SVG Version: 6.00 Build 0)  -->
<svg version="1.1" id="Capa_1" xmlns="http://www.w3.org/2000/svg" xmlns:xlink="http://www.w3.org/1999/xlink" x="0px" y="0px"
	 viewBox="0 0 35 35" style="enable-background:new 0 0 35 35;" xml:space="preserve">
<style type="text/css">
	.st0{fill:url(#SVGID_1_);}
	.st1{opacity:0.2;}
	.st2{fill:#929396;}
	.st3{fill:url(#SVGID_2_);}
	.st4{fill:none;stroke:#D0D1D2;stroke-width:0.5;}
</style>
<g>
	<g>
		<linearGradient id="SVGID_1_" gradientUnits="userSpaceOnUse" x1="6.5557" y1="18.859" x2="25.6892" y2="18.859">
			<stop  offset="0" style="stop-color:#FDF2F7"/>
			<stop  offset="0.1124" style="stop-color:#FBF2F8"/>
			<stop  offset="0.2392" style="stop-color:#FDF7F8"/>
			<stop  offset="0.3539" style="stop-color:#FFFEF7"/>
			<stop  offset="0.4922" style="stop-color:#FDFCF7"/>
			<stop  offset="0.6226" style="stop-color:#F3F6F8"/>
			<stop  offset="0.7135" style="stop-color:#E8EFF8"/>
			<stop  offset="1" style="stop-color:#FDF0EA"/>
		</linearGradient>
		<path class="st0" d="M25.1,4.1C24.7,3.9,24.3,4,24,4.2l-10.3,8.3H8.7c-1.2,0-2.1,1-2.1,2.1v8.5c0,1.2,1,2.1,2.1,2.1h4.9L24,33.5
			c0.2,0.2,0.4,0.2,0.7,0.2c0.2,0,0.3,0,0.5-0.1c0.4-0.2,0.6-0.5,0.6-1V5C25.7,4.6,25.5,4.3,25.1,4.1z"/>
	</g>
	<g class="st1">
		<path class="st2" d="M24.6,32.7c-0.5,0-0.9-0.2-1.3-0.4l-10.1-8.1H8.7c-1.7,0-3.1-1.4-3.1-3.1v-8.5c0-1.7,1.4-3.1,3.1-3.1h4.6
			l10.1-8.1C23.7,1.1,24.2,1,24.6,1c0.3,0,0.6,0.1,0.9,0.2c0.7,0.3,1.2,1.1,1.2,1.9v27.6c0,0.8-0.5,1.5-1.2,1.9
			C25.2,32.7,24.9,32.7,24.6,32.7z"/>
	</g>
	<g>
		
			<linearGradient id="SVGID_2_" gradientUnits="userSpaceOnUse" x1="1.5553" y1="18.859" x2="20.6889" y2="18.859" gradientTransform="matrix(1 0 0 1 5.0003 0)">
			<stop  offset="0" style="stop-color:#FDF2F7"/>
			<stop  offset="0.1124" style="stop-color:#FBF2F8"/>
			<stop  offset="0.2392" style="stop-color:#FDF7F8"/>
			<stop  offset="0.3539" style="stop-color:#FFFEF7"/>
			<stop  offset="0.4922" style="stop-color:#FDFCF7"/>
			<stop  offset="0.6226" style="stop-color:#F3F6F8"/>
			<stop  offset="0.7135" style="stop-color:#E8EFF8"/>
			<stop  offset="1" style="stop-color:#FDF0EA"/>
		</linearGradient>
		<path class="st3" d="M25.1,4.1C24.7,3.9,24.3,4,24,4.2l-10.3,8.3H8.7c-1.2,0-2.1,1-2.1,2.1v8.5c0,1.2,1,2.1,2.1,2.1h4.9L24,33.5
			c0.2,0.2,0.4,0.2,0.7,0.2c0.2,0,0.3,0,0.5-0.1c0.4-0.2,0.6-0.5,0.6-1V5C25.7,4.6,25.5,4.3,25.1,4.1z"/>
	</g>
	<g>
		<path class="st4" d="M25.1,4.1C24.7,3.9,24.3,4,24,4.2l-10.3,8.3H8.7c-1.2,0-2.1,1-2.1,2.1v8.5c0,1.2,1,2.1,2.1,2.1h4.9L24,33.5
			c0.2,0.2,0.4,0.2,0.7,0.2c0.2,0,0.3,0,0.5-0.1c0.4-0.2,0.6-0.5,0.6-1V5C25.7,4.6,25.5,4.3,25.1,4.1z"/>
	</g>
</g>
</svg>
