<?xml version="1.0" encoding="utf-8"?>
<!-- Generator: Adobe Illustrator 19.2.1, SVG Export Plug-In . SVG Version: 6.00 Build 0)  -->
<svg version="1.1" id="Capa_1" xmlns="http://www.w3.org/2000/svg" xmlns:xlink="http://www.w3.org/1999/xlink" x="0px" y="0px"
	 viewBox="0 0 625 285" style="enable-background:new 0 0 625 285;" xml:space="preserve">
<style type="text/css">
	.st0{clip-path:url(#SVGID_2_);fill:url(#SVGID_3_);}
</style>
<g>
	<defs>
		<polygon id="SVGID_1_" points="605,28 602.4,38.3 593.3,74.8 590.2,87.4 581.1,124 577.9,136.6 568.8,173.2 565.6,185.9 
			556.5,222.5 553.4,235.2 544.1,272.4 528.9,272.4 523.8,272.5 508.8,272.5 503.7,272.5 488.7,272.5 483.6,272.5 468.7,272.6 
			463.5,272.6 448.6,272.6 443.4,272.6 428.5,272.6 423.3,272.7 408.4,272.7 403.2,272.7 388.3,272.7 383.2,272.7 368.2,272.8 
			363.1,272.8 348.1,272.8 343,272.8 328,272.8 322.9,272.9 307.9,272.9 302.8,272.9 287.9,272.9 282.7,272.9 267.8,273 262.6,273 
			247.7,273 242.5,273 227.6,273.1 222.4,273.1 207.5,273.1 202.3,273.1 187.4,273.1 182.3,273.2 167.3,273.2 162.2,273.2 
			147.2,273.2 142.1,273.2 127.1,273.3 122,273.3 107,273.3 101.9,273.3 87,273.3 81.8,273.4 79.7,273.4 76.1,259.3 74.6,253.7 
			70.4,237.4 68.9,231.8 64.7,215.5 63.2,209.9 59,193.6 57.6,188 53.3,171.7 51.9,166.1 47.7,149.8 46.2,144.2 42,127.9 
			40.5,122.3 36.3,106 34.8,100.4 30.6,84.1 29.1,78.5 24.9,62.2 23.5,56.6 19.2,40.4 17.8,34.8 15,24.2 24.7,24.2 29.8,24.3 
			44.7,24.4 49.8,24.4 64.7,24.5 69.8,24.5 84.7,24.6 89.8,24.7 104.6,24.8 109.8,24.8 124.6,24.9 129.7,24.9 144.6,25 149.7,25 
			164.6,25.1 169.7,25.2 184.5,25.3 189.7,25.3 204.5,25.4 209.6,25.4 224.5,25.5 229.6,25.6 244.5,25.7 249.6,25.7 264.4,25.8 
			269.6,25.8 284.4,25.9 289.5,25.9 304.4,26 309.5,26.1 324.4,26.2 329.5,26.2 344.4,26.3 349.5,26.3 364.3,26.4 369.5,26.5 
			384.3,26.6 389.4,26.6 404.3,26.7 409.4,26.7 424.3,26.8 429.4,26.8 444.3,26.9 449.4,27 464.2,27.1 469.4,27.1 484.2,27.2 
			489.3,27.2 504.2,27.3 509.3,27.4 524.2,27.5 529.3,27.5 544.1,27.6 549.3,27.6 564.1,27.7 569.3,27.8 584.1,27.8 589.2,27.9 
			604.1,28 		"/>
	</defs>
	<clipPath id="SVGID_2_">
		<use xlink:href="#SVGID_1_"  style="overflow:visible;"/>
	</clipPath>
	
		<linearGradient id="SVGID_3_" gradientUnits="userSpaceOnUse" x1="-24.9995" y1="304.0195" x2="-23.8949" y2="304.0195" gradientTransform="matrix(0 217.2396 217.2396 0 -65735.0547 5461.6582)">
		<stop  offset="0" style="stop-color:#66B4E3"/>
		<stop  offset="1" style="stop-color:#355D75"/>
	</linearGradient>
	<rect x="15" y="24.2" class="st0" width="590" height="249.2"/>
</g>
</svg>
